<mxfile host="app.diagrams.net" modified="2023-12-07T13:11:35.104Z" agent="Mozilla/5.0 (Windows NT 10.0; Win64; x64; rv:120.0) Gecko/20100101 Firefox/120.0" etag="pLVBzPZhhAsGZ0BdWWHC" version="22.1.7" type="device">
  <diagram name="Страница — 1" id="YE0ajnt7AX0DdbIa3kZE">
    <mxGraphModel dx="1434" dy="754" grid="1" gridSize="10" guides="1" tooltips="1" connect="1" arrows="1" fold="1" page="1" pageScale="1" pageWidth="827" pageHeight="1169" math="0" shadow="0">
      <root>
        <mxCell id="0" />
        <mxCell id="1" parent="0" />
        <mxCell id="rGqw6bFdRTnq7tLXt0No-54" value="&lt;div style=&quot;font-size: 20px;&quot;&gt;&lt;p&gt;&lt;font style=&quot;font-size: 20px;&quot;&gt;Adapter&lt;/font&gt;&lt;/p&gt;&lt;/div&gt;" style="shape=folder;fontStyle=1;spacingTop=0;tabWidth=80;tabHeight=20;tabPosition=left;html=1;whiteSpace=wrap;fillColor=none;verticalAlign=top;strokeColor=#6c8ebf;spacing=2;movable=1;resizable=1;rotatable=1;deletable=1;editable=1;locked=0;connectable=1;" parent="1" vertex="1">
          <mxGeometry x="40" y="10" width="780" height="190" as="geometry" />
        </mxCell>
        <mxCell id="rGqw6bFdRTnq7tLXt0No-55" value="&lt;p style=&quot;font-size: 20px;&quot;&gt;&lt;font style=&quot;font-size: 20px;&quot;&gt;Logic&lt;/font&gt;&lt;/p&gt;" style="shape=folder;fontStyle=1;spacingTop=0;tabWidth=80;tabHeight=20;tabPosition=left;html=1;whiteSpace=wrap;fillColor=none;verticalAlign=top;strokeColor=#6c8ebf;movable=1;resizable=1;rotatable=1;deletable=1;editable=1;locked=0;connectable=1;" parent="1" vertex="1">
          <mxGeometry x="40" y="210" width="780" height="760" as="geometry" />
        </mxCell>
        <mxCell id="rGqw6bFdRTnq7tLXt0No-43" value="&lt;p style=&quot;font-size: 20px;&quot;&gt;&lt;font style=&quot;font-size: 20px;&quot;&gt;Data&lt;/font&gt;&lt;/p&gt;" style="shape=folder;fontStyle=1;spacingTop=0;tabWidth=80;tabHeight=20;tabPosition=left;html=1;whiteSpace=wrap;fontSize=14;verticalAlign=top;fillColor=none;strokeColor=#6c8ebf;" parent="1" vertex="1">
          <mxGeometry x="40" y="990" width="780" height="170" as="geometry" />
        </mxCell>
        <mxCell id="rGqw6bFdRTnq7tLXt0No-1" value="Token" style="swimlane;fontStyle=1;align=center;verticalAlign=middle;childLayout=stackLayout;horizontal=1;startSize=20;horizontalStack=0;resizeParent=1;resizeLast=0;collapsible=1;marginBottom=0;rounded=0;shadow=0;strokeWidth=1;fontSize=14;fontColor=#000000;fillColor=#1ba1e2;strokeColor=#006EAF;" parent="1" vertex="1">
          <mxGeometry x="360" y="410" width="200" height="150" as="geometry">
            <mxRectangle x="550" y="140" width="160" height="26" as="alternateBounds" />
          </mxGeometry>
        </mxCell>
        <mxCell id="rGqw6bFdRTnq7tLXt0No-2" value="- id: int&#xa;-obj: string&#xa;&#xa;&#xa;&#xa;&#xa;&#xa;&#xa;&#xa;" style="text;align=left;verticalAlign=top;spacingLeft=4;spacingRight=4;overflow=hidden;rotatable=0;points=[[0,0.5],[1,0.5]];portConstraint=eastwest;fontStyle=1;fillColor=#1ba1e2;fontColor=#000000;strokeColor=#006EAF;spacing=0;" parent="rGqw6bFdRTnq7tLXt0No-1" vertex="1">
          <mxGeometry y="20" width="200" height="80" as="geometry" />
        </mxCell>
        <mxCell id="rGqw6bFdRTnq7tLXt0No-3" value="+getToken: Token&#xa;+setToken: void&#xa;" style="text;align=left;verticalAlign=top;spacingLeft=4;spacingRight=4;overflow=hidden;rotatable=0;points=[[0,0.5],[1,0.5]];portConstraint=eastwest;fontStyle=1;fillColor=#1ba1e2;fontColor=#000000;strokeColor=#006EAF;spacing=0;" parent="rGqw6bFdRTnq7tLXt0No-1" vertex="1">
          <mxGeometry y="100" width="200" height="50" as="geometry" />
        </mxCell>
        <mxCell id="rGqw6bFdRTnq7tLXt0No-29" value="" style="endArrow=open;html=1;endSize=12;startArrow=diamondThin;startSize=14;startFill=0;edgeStyle=orthogonalEdgeStyle;rounded=0;entryX=0.995;entryY=0.683;entryDx=0;entryDy=0;entryPerimeter=0;exitX=0;exitY=0.8;exitDx=0;exitDy=0;exitPerimeter=0;" parent="1" target="rGqw6bFdRTnq7tLXt0No-58" edge="1" source="rGqw6bFdRTnq7tLXt0No-33">
          <mxGeometry y="-30" relative="1" as="geometry">
            <mxPoint x="640" y="585" as="sourcePoint" />
            <mxPoint x="560" y="585" as="targetPoint" />
            <mxPoint as="offset" />
            <Array as="points" />
          </mxGeometry>
        </mxCell>
        <mxCell id="rGqw6bFdRTnq7tLXt0No-30" value="&lt;b&gt;1&lt;/b&gt;" style="edgeLabel;resizable=0;html=1;align=left;verticalAlign=top;" parent="rGqw6bFdRTnq7tLXt0No-29" connectable="0" vertex="1">
          <mxGeometry x="-1" relative="1" as="geometry">
            <mxPoint x="10" as="offset" />
          </mxGeometry>
        </mxCell>
        <mxCell id="rGqw6bFdRTnq7tLXt0No-31" value="&lt;b&gt;1&lt;/b&gt;" style="edgeLabel;resizable=0;html=1;align=right;verticalAlign=top;" parent="rGqw6bFdRTnq7tLXt0No-29" connectable="0" vertex="1">
          <mxGeometry x="1" relative="1" as="geometry">
            <mxPoint x="-10" as="offset" />
          </mxGeometry>
        </mxCell>
        <mxCell id="rGqw6bFdRTnq7tLXt0No-32" value="User" style="swimlane;fontStyle=1;align=center;verticalAlign=middle;childLayout=stackLayout;horizontal=1;startSize=20;horizontalStack=0;resizeParent=1;resizeLast=0;collapsible=1;marginBottom=0;rounded=0;shadow=0;strokeWidth=1;fontSize=14;fontColor=#000000;fillColor=#1ba1e2;strokeColor=#006EAF;" parent="1" vertex="1">
          <mxGeometry x="600" y="480" width="200" height="170" as="geometry">
            <mxRectangle x="550" y="140" width="160" height="26" as="alternateBounds" />
          </mxGeometry>
        </mxCell>
        <mxCell id="rGqw6bFdRTnq7tLXt0No-33" value="- id: int&#xa;-FIO: string&#xa;-login: string&#xa;-hash_password: int&#xa;-email: string&#xa;-phone: int&#xa;&#xa;" style="text;align=left;verticalAlign=top;spacingLeft=4;spacingRight=4;overflow=hidden;rotatable=0;points=[[0,0.5],[1,0.5]];portConstraint=eastwest;fontStyle=1;fillColor=#1ba1e2;fontColor=#000000;strokeColor=#006EAF;" parent="rGqw6bFdRTnq7tLXt0No-32" vertex="1">
          <mxGeometry y="20" width="200" height="100" as="geometry" />
        </mxCell>
        <mxCell id="rGqw6bFdRTnq7tLXt0No-34" value="+setUser: void&#xa;+getUser: User&#xa;" style="text;align=left;verticalAlign=top;spacingLeft=4;spacingRight=4;overflow=hidden;rotatable=0;points=[[0,0.5],[1,0.5]];portConstraint=eastwest;fontStyle=1;fillColor=#1ba1e2;fontColor=#000000;strokeColor=#006EAF;" parent="rGqw6bFdRTnq7tLXt0No-32" vertex="1">
          <mxGeometry y="120" width="200" height="50" as="geometry" />
        </mxCell>
        <mxCell id="rGqw6bFdRTnq7tLXt0No-41" value="«interface»&#xa;IRepository" style="swimlane;fontStyle=1;align=center;verticalAlign=middle;childLayout=stackLayout;horizontal=1;startSize=40;horizontalStack=0;resizeParent=1;resizeLast=0;collapsible=1;marginBottom=0;rounded=0;shadow=0;strokeWidth=1;fontSize=14;fillColor=#1ba1e2;fontColor=#000000;strokeColor=#006EAF;" parent="1" vertex="1">
          <mxGeometry x="80" y="810" width="200" height="130" as="geometry">
            <mxRectangle x="340" y="380" width="170" height="26" as="alternateBounds" />
          </mxGeometry>
        </mxCell>
        <mxCell id="rGqw6bFdRTnq7tLXt0No-42" value="+create: void&#xa;+update: void&#xa;+read: Token&#xa;+delete: void&#xa;" style="text;align=left;verticalAlign=top;spacingLeft=4;spacingRight=4;overflow=hidden;rotatable=0;points=[[0,0.5],[1,0.5]];portConstraint=eastwest;fontStyle=1;fillColor=#1ba1e2;fontColor=#000000;strokeColor=#006EAF;" parent="rGqw6bFdRTnq7tLXt0No-41" vertex="1">
          <mxGeometry y="40" width="200" height="90" as="geometry" />
        </mxCell>
        <mxCell id="rGqw6bFdRTnq7tLXt0No-44" value="Repository" style="swimlane;fontStyle=1;align=center;verticalAlign=middle;childLayout=stackLayout;horizontal=1;startSize=20;horizontalStack=0;resizeParent=1;resizeLast=0;collapsible=1;marginBottom=0;rounded=0;shadow=0;strokeWidth=1;fontSize=14;fillColor=#1ba1e2;fontColor=#000000;strokeColor=#006EAF;" parent="1" vertex="1">
          <mxGeometry x="80" y="1040" width="200" height="110" as="geometry">
            <mxRectangle x="550" y="140" width="160" height="26" as="alternateBounds" />
          </mxGeometry>
        </mxCell>
        <mxCell id="rGqw6bFdRTnq7tLXt0No-45" value="-token: Token" style="text;align=left;verticalAlign=top;spacingLeft=4;spacingRight=4;overflow=hidden;rotatable=0;points=[[0,0.5],[1,0.5]];portConstraint=eastwest;fontStyle=1;fillColor=#1ba1e2;fontColor=#000000;strokeColor=#006EAF;" parent="rGqw6bFdRTnq7tLXt0No-44" vertex="1">
          <mxGeometry y="20" width="200" height="20" as="geometry" />
        </mxCell>
        <mxCell id="rGqw6bFdRTnq7tLXt0No-46" value="+create: void&#xa;+update: void&#xa;+read: Token&#xa;+delete: void&#xa;&#xa;&#xa;" style="text;align=left;verticalAlign=top;spacingLeft=4;spacingRight=4;overflow=hidden;rotatable=0;points=[[0,0.5],[1,0.5]];portConstraint=eastwest;fontStyle=1;fillColor=#1ba1e2;fontColor=#000000;strokeColor=#006EAF;labelBackgroundColor=none;" parent="rGqw6bFdRTnq7tLXt0No-44" vertex="1">
          <mxGeometry y="40" width="200" height="70" as="geometry" />
        </mxCell>
        <mxCell id="rGqw6bFdRTnq7tLXt0No-47" value="TokenAdapter" style="swimlane;fontStyle=1;align=center;verticalAlign=middle;childLayout=stackLayout;horizontal=1;startSize=20;horizontalStack=0;resizeParent=1;resizeLast=0;collapsible=1;marginBottom=0;rounded=0;shadow=0;strokeWidth=1;fontSize=14;fillColor=#1ba1e2;fontColor=#000000;strokeColor=#006EAF;" parent="1" vertex="1">
          <mxGeometry x="80" y="50" width="200" height="140" as="geometry">
            <mxRectangle x="550" y="140" width="160" height="26" as="alternateBounds" />
          </mxGeometry>
        </mxCell>
        <mxCell id="rGqw6bFdRTnq7tLXt0No-48" value="-user: User&#xa;-token: Token&#xa;&#xa;&#xa;" style="text;align=left;verticalAlign=top;spacingLeft=4;spacingRight=4;overflow=hidden;rotatable=0;points=[[0,0.5],[1,0.5]];portConstraint=eastwest;fontStyle=1;fillColor=#1ba1e2;fontColor=#000000;strokeColor=#006EAF;" parent="rGqw6bFdRTnq7tLXt0No-47" vertex="1">
          <mxGeometry y="20" width="200" height="50" as="geometry" />
        </mxCell>
        <mxCell id="rGqw6bFdRTnq7tLXt0No-49" value="+getToken(User): Token&#xa;+checkToken(Token): bool&#xa;+deleteToken(Token): void&#xa;" style="text;align=left;verticalAlign=top;spacingLeft=4;spacingRight=4;overflow=hidden;rotatable=0;points=[[0,0.5],[1,0.5]];portConstraint=eastwest;fontStyle=1;fillColor=#1ba1e2;fontColor=#000000;strokeColor=#006EAF;labelBackgroundColor=none;" parent="rGqw6bFdRTnq7tLXt0No-47" vertex="1">
          <mxGeometry y="70" width="200" height="70" as="geometry" />
        </mxCell>
        <mxCell id="rGqw6bFdRTnq7tLXt0No-50" value="«interface»&#xa;IAdapter" style="swimlane;fontStyle=1;align=center;verticalAlign=middle;childLayout=stackLayout;horizontal=1;startSize=40;horizontalStack=0;resizeParent=1;resizeLast=0;collapsible=1;marginBottom=0;rounded=0;shadow=0;strokeWidth=1;fontSize=14;fillColor=#1ba1e2;fontColor=#000000;strokeColor=#006EAF;" parent="1" vertex="1">
          <mxGeometry x="80" y="260" width="200" height="130" as="geometry">
            <mxRectangle x="340" y="380" width="170" height="26" as="alternateBounds" />
          </mxGeometry>
        </mxCell>
        <mxCell id="rGqw6bFdRTnq7tLXt0No-51" value="+getToken(User): Token&#xa;+checkToken(Token): bool&#xa;+deleteToken(Token): void&#xa;" style="text;align=left;verticalAlign=top;spacingLeft=4;spacingRight=4;overflow=hidden;rotatable=0;points=[[0,0.5],[1,0.5]];portConstraint=eastwest;fontStyle=1;fillColor=#1ba1e2;fontColor=#000000;strokeColor=#006EAF;" parent="rGqw6bFdRTnq7tLXt0No-50" vertex="1">
          <mxGeometry y="40" width="200" height="90" as="geometry" />
        </mxCell>
        <mxCell id="rGqw6bFdRTnq7tLXt0No-52" value="" style="endArrow=block;dashed=1;endFill=0;endSize=12;html=1;rounded=0;exitX=0.4;exitY=0;exitDx=0;exitDy=0;exitPerimeter=0;" parent="1" edge="1">
          <mxGeometry width="160" relative="1" as="geometry">
            <mxPoint x="179" y="1040" as="sourcePoint" />
            <mxPoint x="179" y="940" as="targetPoint" />
            <Array as="points">
              <mxPoint x="179" y="1000" />
            </Array>
          </mxGeometry>
        </mxCell>
        <mxCell id="rGqw6bFdRTnq7tLXt0No-53" value="" style="endArrow=block;dashed=1;endFill=0;endSize=12;html=1;rounded=0;entryX=0.398;entryY=0.012;entryDx=0;entryDy=0;entryPerimeter=0;" parent="1" edge="1">
          <mxGeometry width="160" relative="1" as="geometry">
            <mxPoint x="180" y="190" as="sourcePoint" />
            <mxPoint x="179.49999999999991" y="260.11999999999995" as="targetPoint" />
            <Array as="points" />
          </mxGeometry>
        </mxCell>
        <mxCell id="rGqw6bFdRTnq7tLXt0No-56" value="TokenServer" style="swimlane;fontStyle=1;align=center;verticalAlign=middle;childLayout=stackLayout;horizontal=1;startSize=20;horizontalStack=0;resizeParent=1;resizeLast=0;collapsible=1;marginBottom=0;rounded=0;shadow=0;strokeWidth=1;fontSize=14;fillColor=#1ba1e2;fontColor=#000000;strokeColor=#006EAF;" parent="1" vertex="1">
          <mxGeometry x="80" y="480" width="200" height="120" as="geometry">
            <mxRectangle x="550" y="140" width="160" height="26" as="alternateBounds" />
          </mxGeometry>
        </mxCell>
        <mxCell id="rGqw6bFdRTnq7tLXt0No-57" value="+adapter: IAdapter&#xa;+repository: IRepositiry&#xa;" style="text;align=left;verticalAlign=top;spacingLeft=4;spacingRight=4;overflow=hidden;rotatable=0;points=[[0,0.5],[1,0.5]];portConstraint=eastwest;fontStyle=1;fillColor=#1ba1e2;fontColor=#000000;strokeColor=#006EAF;" parent="rGqw6bFdRTnq7tLXt0No-56" vertex="1">
          <mxGeometry y="20" width="200" height="40" as="geometry" />
        </mxCell>
        <mxCell id="rGqw6bFdRTnq7tLXt0No-58" value="+createIAdapter: void&#xa;+createIRepository: void&#xa;" style="text;align=left;verticalAlign=top;spacingLeft=4;spacingRight=4;overflow=hidden;rotatable=0;points=[[0,0.5],[1,0.5]];portConstraint=eastwest;fontStyle=1;fillColor=#1ba1e2;fontColor=#000000;strokeColor=#006EAF;" parent="rGqw6bFdRTnq7tLXt0No-56" vertex="1">
          <mxGeometry y="60" width="200" height="60" as="geometry" />
        </mxCell>
        <mxCell id="rGqw6bFdRTnq7tLXt0No-62" value="" style="endArrow=open;html=1;endSize=12;startArrow=diamondThin;startSize=14;startFill=0;edgeStyle=orthogonalEdgeStyle;align=left;verticalAlign=bottom;rounded=0;exitX=0.5;exitY=1;exitDx=0;exitDy=0;" parent="1" source="rGqw6bFdRTnq7tLXt0No-56" target="rGqw6bFdRTnq7tLXt0No-41" edge="1">
          <mxGeometry x="-1" y="3" relative="1" as="geometry">
            <mxPoint x="300" y="640" as="sourcePoint" />
            <mxPoint x="460" y="640" as="targetPoint" />
          </mxGeometry>
        </mxCell>
        <mxCell id="rGqw6bFdRTnq7tLXt0No-63" value="" style="endArrow=open;html=1;endSize=12;startArrow=diamondThin;startSize=14;startFill=0;edgeStyle=orthogonalEdgeStyle;align=left;verticalAlign=bottom;rounded=0;exitX=0.5;exitY=1;exitDx=0;exitDy=0;entryX=0.5;entryY=1;entryDx=0;entryDy=0;entryPerimeter=0;" parent="1" target="rGqw6bFdRTnq7tLXt0No-51" edge="1">
          <mxGeometry x="-1" y="3" relative="1" as="geometry">
            <mxPoint x="179.5" y="480" as="sourcePoint" />
            <mxPoint x="179.5" y="400" as="targetPoint" />
          </mxGeometry>
        </mxCell>
        <mxCell id="72QKF9BPKYFidnav9yEF-4" value="" style="endArrow=open;endSize=12;dashed=1;html=1;rounded=0;entryX=0.685;entryY=-0.027;entryDx=0;entryDy=0;entryPerimeter=0;" edge="1" parent="1" target="rGqw6bFdRTnq7tLXt0No-1">
          <mxGeometry width="160" relative="1" as="geometry">
            <mxPoint x="280" y="160" as="sourcePoint" />
            <mxPoint x="500" y="320" as="targetPoint" />
            <Array as="points">
              <mxPoint x="500" y="160" />
            </Array>
          </mxGeometry>
        </mxCell>
        <mxCell id="72QKF9BPKYFidnav9yEF-6" value="" style="endArrow=open;endSize=12;dashed=1;html=1;rounded=0;entryX=0.5;entryY=0;entryDx=0;entryDy=0;exitX=1;exitY=0.5;exitDx=0;exitDy=0;" edge="1" parent="1" source="rGqw6bFdRTnq7tLXt0No-47" target="rGqw6bFdRTnq7tLXt0No-32">
          <mxGeometry width="160" relative="1" as="geometry">
            <mxPoint x="290" y="170" as="sourcePoint" />
            <mxPoint x="470" y="330" as="targetPoint" />
            <Array as="points">
              <mxPoint x="700" y="120" />
            </Array>
          </mxGeometry>
        </mxCell>
        <mxCell id="72QKF9BPKYFidnav9yEF-8" value="" style="endArrow=open;html=1;endSize=12;startArrow=diamondThin;startSize=14;startFill=0;edgeStyle=orthogonalEdgeStyle;rounded=0;" edge="1" parent="1">
          <mxGeometry y="-30" relative="1" as="geometry">
            <mxPoint x="360" y="550" as="sourcePoint" />
            <mxPoint x="280" y="550" as="targetPoint" />
            <mxPoint as="offset" />
            <Array as="points">
              <mxPoint x="340" y="550" />
              <mxPoint x="340" y="550" />
            </Array>
          </mxGeometry>
        </mxCell>
      </root>
    </mxGraphModel>
  </diagram>
</mxfile>
